# xmcd CD database file
# Copyright (C) 1995-1998 Ti Kan
#
# Track frame offsets:
#	150
#	12160
#	31318
#	48725
#	64170
#	80290
#	95265
#	112390
#	129910
#	147130
#
# Disc length: 2228 seconds
#
# Revision: 1
# Processed by: cddbd v1.4PL0 Copyright (c) Steve Scherf et al.
# Submitted via: CDex 1.30Release
#
DISCID=8208b20a
DTITLE=Les Taylor - Blue Kentucky Wind
DYEAR=1900
DGENRE=Country
TTITLE0=I Gotta Mind to Go Crazyy
TTITLE1=Tell Me About It
TTITLE2=Welcome to the Real World of Love
TTITLE3=Try Me
TTITLE4=The Very First Lasting Love (w/ Shelby Lynn)
TTITLE5=After You
TTITLE6=For The Rest of Your Life (aka You Have The Right to Remain Silent)
TTITLE7=If This Ain't The Real Thing
TTITLE8=Blue Kentucky Wind
TTITLE9=The Porchlight
EXTD=ID3G:   2
EXTT0=
EXTT1=
EXTT2=
EXTT3=
EXTT4=
EXTT5=
EXTT6=
EXTT7=
EXTT8=
EXTT9=
PLAYORDER=
